<svg xmlns="http://www.w3.org/2000/svg" width="173" height="40" fill="none" style=""><rect id="backgroundrect" width="100%" height="100%" x="0" y="0" fill="none" stroke="none"/>









<defs>
<clipPath id="clip0">
<rect width="27.428600311279297" height="27.428600311279297" fill="white" y="6.857140064239502" x="6.857150077819824" id="svg_1"/>
</clipPath>
</defs>
<g class="currentLayer" style=""><title>Layer 1</title><path d="M104.368097407341,14.583039102971554 C106.000097407341,14.583039102971554 107.312097407341,15.087039102971554 108.304097407341,16.095039102971555 C109.312097407341,17.087039102971552 109.816097407341,18.479039102971555 109.816097407341,20.271039102971553 V28.071039102971554 H106.456097407341 V20.727039102971553 C106.456097407341,19.687039102971553 106.19209740734101,18.895039102971555 105.664097407341,18.351039102971555 C105.136097407341,17.791039102971553 104.416097407341,17.511039102971555 103.504097407341,17.511039102971555 C102.592097407341,17.511039102971555 101.864097407341,17.791039102971553 101.32009740734101,18.351039102971555 C100.792097407341,18.895039102971555 100.52809740734101,19.687039102971553 100.52809740734101,20.727039102971553 V28.071039102971554 H97.168197407341 V20.727039102971553 C97.168197407341,19.687039102971553 96.904197407341,18.895039102971555 96.37619740734101,18.351039102971555 C95.848197407341,17.791039102971553 95.128197407341,17.511039102971555 94.216197407341,17.511039102971555 C93.288197407341,17.511039102971555 92.552197407341,17.791039102971553 92.008197407341,18.351039102971555 C91.48019740734101,18.895039102971555 91.216197407341,19.687039102971553 91.216197407341,20.727039102971553 V28.071039102971554 H87.856197407341 V14.775039102971554 H91.216197407341 V16.383039102971555 C91.648197407341,15.823039102971554 92.20019740734101,15.383039102971553 92.872197407341,15.063039102971555 C93.56019740734101,14.743039102971554 94.312197407341,14.583039102971554 95.128197407341,14.583039102971554 C96.168197407341,14.583039102971554 97.09619740734101,14.807039102971554 97.912197407341,15.255039102971553 C98.728197407341,15.687039102971553 99.360097407341,16.311039102971552 99.80809740734101,17.127039102971555 C100.240097407341,16.359039102971554 100.864097407341,15.743039102971554 101.68009740734101,15.279039102971554 C102.512097407341,14.815039102971554 103.408097407341,14.583039102971554 104.368097407341,14.583039102971554 z" fill="white" id="svg_4" class=""/><path d="M62.29033456516265,14.845333969116211 C63.92233456516266,14.845333969116211 65.23433456516267,15.349333969116211 66.22633456516266,16.357333969116212 C67.23433456516267,17.34933396911621 67.73833456516266,18.741333969116212 67.73833456516266,20.533333969116214 V28.33333396911621 H64.37833456516266 V20.98933396911621 C64.37833456516266,19.94933396911621 64.11433456516266,19.15733396911621 63.58633456516266,18.613333969116212 C63.05833456516265,18.05333396911621 62.338334565162654,17.77333396911621 61.42633456516266,17.77333396911621 C60.514334565162656,17.77333396911621 59.78633456516266,18.05333396911621 59.242334565162665,18.613333969116212 C58.71433456516266,19.15733396911621 58.45033456516266,19.94933396911621 58.45033456516266,20.98933396911621 V28.33333396911621 H55.09043456516265 V20.98933396911621 C55.09043456516265,19.94933396911621 54.82643456516266,19.15733396911621 54.298434565162665,18.613333969116212 C53.77043456516266,18.05333396911621 53.05043456516266,17.77333396911621 52.138434565162655,17.77333396911621 C51.21043456516266,17.77333396911621 50.47443456516265,18.05333396911621 49.930434565162656,18.613333969116212 C49.402434565162665,19.15733396911621 49.138434565162655,19.94933396911621 49.138434565162655,20.98933396911621 V28.33333396911621 H45.778434565162655 V15.037333969116212 H49.138434565162655 V16.64533396911621 C49.57043456516266,16.085333969116213 50.12243456516266,15.645333969116209 50.79443456516266,15.325333969116215 C51.48243456516266,15.005333969116208 52.23443456516266,14.845333969116211 53.05043456516266,14.845333969116211 C54.09043456516265,14.845333969116211 55.018434565162664,15.069333969116215 55.83443456516265,15.517333969116208 C56.650434565162655,15.94933396911621 57.28233456516266,16.573333969116206 57.730334565162664,17.38933396911621 C58.16233456516265,16.621333969116208 58.78633456516266,16.005333969116208 59.602334565162664,15.54133396911621 C60.43433456516266,15.07733396911621 61.33033456516266,14.845333969116211 62.29033456516265,14.845333969116211 z" fill="white" class="" id="svg_13"/><path d="M117.68020629000664,28.20200508272648 C116.40020629000664,28.20200508272648 115.24820629000664,27.92200508272648 114.22420629000663,27.36200508272648 C113.20020629000663,26.78600508272648 112.39220629000664,25.97800508272648 111.80020629000664,24.93800508272648 C111.22420629000663,23.898005082726478 110.93620629000664,22.69800508272648 110.93620629000664,21.33800508272648 C110.93620629000664,19.97800508272648 111.23220629000664,18.77800508272648 111.82420629000664,17.738005082726477 C112.43220629000663,16.69800508272648 113.25620629000663,15.89800508272648 114.29620629000664,15.338005082726479 C115.33620629000664,14.762005082726478 116.49620629000664,14.474005082726478 117.77620629000664,14.474005082726478 C119.05620629000664,14.474005082726478 120.21620629000664,14.762005082726478 121.25620629000663,15.338005082726479 C122.29620629000664,15.89800508272648 123.11220629000664,16.69800508272648 123.70420629000664,17.738005082726477 C124.31220629000666,18.77800508272648 124.61620629000663,19.97800508272648 124.61620629000663,21.33800508272648 C124.61620629000663,22.69800508272648 124.30420629000662,23.898005082726478 123.68020629000664,24.93800508272648 C123.07220629000663,25.97800508272648 122.24020629000664,26.78600508272648 121.18420629000664,27.36200508272648 C120.14420629000664,27.92200508272648 118.97620629000664,28.20200508272648 117.68020629000664,28.20200508272648 zM117.68020629000664,25.27400508272648 C118.28820629000664,25.27400508272648 118.85620629000664,25.130005082726477 119.38420629000663,24.84200508272648 C119.92820629000664,24.538005082726478 120.36020629000664,24.090005082726478 120.68020629000664,23.49800508272648 C121.00020629000663,22.90600508272648 121.16020629000664,22.186005082726478 121.16020629000664,21.33800508272648 C121.16020629000664,20.07400508272648 120.82420629000664,19.10600508272648 120.15220629000663,18.43400508272648 C119.49620629000664,17.74600508272648 118.68820629000663,17.40200508272648 117.72820629000664,17.40200508272648 C116.76820629000663,17.40200508272648 115.96020629000664,17.74600508272648 115.30420629000663,18.43400508272648 C114.66420629000663,19.10600508272648 114.34420629000664,20.07400508272648 114.34420629000664,21.33800508272648 C114.34420629000664,22.60200508272648 114.65620629000664,23.578005082726477 115.28020629000663,24.26600508272648 C115.92020629000663,24.93800508272648 116.72020629000664,25.27400508272648 117.68020629000664,25.27400508272648 z" fill="white" id="svg_5" class=""/><path d="M133.55124711728095,14.746304405748845 C135.13524711728095,14.746304405748845 136.41524711728096,15.250304405748844 137.39124711728095,16.258304405748845 C138.36724711728095,17.250304405748842 138.85524711728095,18.642304405748845 138.85524711728095,20.434304405748843 V28.234304405748844 H135.49524711728097 V20.890304405748843 C135.49524711728097,19.834304405748846 135.23124711728096,19.026304405748846 134.70324711728097,18.466304405748843 C134.17524711728095,17.890304405748843 133.45524711728095,17.602304405748843 132.54324711728097,17.602304405748843 C131.61524711728097,17.602304405748843 130.87924711728095,17.890304405748843 130.33524711728097,18.466304405748843 C129.80724711728095,19.026304405748846 129.54324711728097,19.834304405748846 129.54324711728097,20.890304405748843 V28.234304405748844 H126.18324711728096 V14.938304405748845 H129.54324711728097 V16.594304405748844 C129.99124711728095,16.018304405748843 130.55924711728096,15.570304405748844 131.24724711728095,15.250304405748844 C131.95124711728096,14.914304405748844 132.71924711728096,14.746304405748845 133.55124711728095,14.746304405748845 z" fill="white" id="svg_6" class=""/><path d="M153.58371651172638,21.21327038550377 C153.58371651172638,21.69327038550377 153.55171651172637,22.125270385503768 153.48771651172638,22.50927038550377 H143.76771651172638 C143.8477165117264,23.46927038550377 144.18371651172637,24.221270385503768 144.7757165117264,24.76527038550377 C145.36771651172637,25.30927038550377 146.09571651172638,25.581270385503768 146.95971651172638,25.581270385503768 C148.20771651172637,25.581270385503768 149.09571651172638,25.04527038550377 149.62371651172637,23.97327038550377 H153.24771651172637 C152.86371651172638,25.253270385503768 152.1277165117264,26.30927038550377 151.03971651172637,27.14127038550377 C149.95171651172637,27.95727038550377 148.6157165117264,28.36527038550377 147.0317165117264,28.36527038550377 C145.75171651172639,28.36527038550377 144.59971651172637,28.08527038550377 143.57571651172637,27.52527038550377 C142.5677165117264,26.94927038550377 141.7757165117264,26.14127038550377 141.1997165117264,25.10127038550377 C140.6397165117264,24.061270385503768 140.3597165117264,22.86127038550377 140.3597165117264,21.50127038550377 C140.3597165117264,20.125270385503768 140.6397165117264,18.91727038550377 141.1997165117264,17.87727038550377 C141.75971651172637,16.837270385503768 142.5437165117264,16.037270385503767 143.55171651172637,15.477270385503768 C144.55971651172638,14.91727038550377 145.71971651172638,14.637270385503768 147.0317165117264,14.637270385503768 C148.29571651172637,14.637270385503768 149.42371651172638,14.909270385503769 150.41571651172637,15.45327038550377 C151.42371651172638,15.99727038550377 152.1997165117264,16.773270385503768 152.74371651172638,17.78127038550377 C153.30371651172638,18.773270385503768 153.58371651172638,19.91727038550377 153.58371651172638,21.21327038550377 zM150.1037165117264,20.253270385503768 C150.08771651172637,19.389270385503767 149.7757165117264,18.70127038550377 149.16771651172638,18.189270385503768 C148.55971651172638,17.66127038550377 147.81571651172638,17.39727038550377 146.93571651172638,17.39727038550377 C146.1037165117264,17.39727038550377 145.39971651172638,17.65327038550377 144.8237165117264,18.165270385503767 C144.2637165117264,18.66127038550377 143.9197165117264,19.357270385503767 143.79171651172638,20.253270385503768 H150.1037165117264 z" fill="white" id="svg_7" class=""/><path d="M167.83834915566447,14.69340645158291 L159.60634915566445,34.277406451582905 H156.03034915566445 L158.91034915566445,27.65340645158291 L153.58234915566445,14.69340645158291 H157.35034915566445 L160.78234915566443,23.98140645158291 L164.26234915566445,14.69340645158291 H167.83834915566447 z" fill="white" id="svg_8" class=""/><path d="M82.0156870405674,14.795836720705033 L73.7836870405674,34.37983672070503 H70.20768704056741 L73.0876870405674,27.755836720705034 L67.7596870405674,14.795836720705033 H71.5276870405674 L74.95968704056739,24.083836720705037 L78.4396870405674,14.795836720705033 H82.0156870405674 z" fill="white" class="" id="svg_14"/><path d="M34.1422 5.85781C30.3647 2.08031 25.3422 0 20 0C14.6578 0 9.63531 2.08031 5.85781 5.85781C2.08031 9.63531 0 14.6578 0 20C0 25.3422 2.08039 30.3646 5.85781 34.1422C9.63523 37.9198 14.6578 40 20 40C25.3422 40 30.3647 37.9197 34.1422 34.1422C37.9197 30.3647 40 25.3422 40 20C40 14.6578 37.9196 9.63539 34.1422 5.85781Z" fill="#33CC95" id="svg_9"/><g clip-path="url(#clip0)" id="svg_10">
<path d="M20.5714 8V33.1429" stroke="white" stroke-width="2" stroke-linecap="round" stroke-linejoin="round" id="svg_11"/>
<path d="M26.2857 12.5714H17.7143C16.6534 12.5714 15.636 12.9929 14.8859 13.743C14.1357 14.4931 13.7143 15.5106 13.7143 16.5714C13.7143 17.6323 14.1357 18.6497 14.8859 19.3999C15.636 20.15 16.6534 20.5714 17.7143 20.5714H23.4286C24.4894 20.5714 25.5069 20.9929 26.257 21.743C27.0072 22.4932 27.4286 23.5106 27.4286 24.5714C27.4286 25.6323 27.0072 26.6497 26.257 27.3999C25.5069 28.15 24.4894 28.5714 23.4286 28.5714H13.7143" stroke="white" stroke-width="2" stroke-linecap="round" stroke-linejoin="round" id="svg_12"/>
</g></g></svg>